<svg xmlns="http://www.w3.org/2000/svg" viewBox="0 0 1600 900" role="img" aria-labelledby="t d"><title id="t">Charge 80 Haptic concept</title><desc id="d">Concept artwork showing an iPhone battery reaching 80 percent while charging.</desc><defs><linearGradient id="g" x1="0" y1="0" x2="1" y2="1"><stop stop-color="#7c3aed"/><stop offset="1" stop-color="#168dff"/></linearGradient><filter id="s"><feDropShadow dx="0" dy="28" stdDeviation="36" flood-opacity=".35"/></filter></defs><rect width="1600" height="900" fill="#061020"/><circle cx="260" cy="130" r="360" fill="#7c3aed" opacity=".22"/><circle cx="1390" cy="730" r="420" fill="#168dff" opacity=".2"/><g filter="url(#s)"><rect x="510" y="105" width="580" height="690" rx="92" fill="#101c34" stroke="#6e86b5" stroke-opacity=".5" stroke-width="4"/><rect x="552" y="155" width="496" height="590" rx="58" fill="#07111f"/><rect x="720" y="178" width="160" height="34" rx="17" fill="#02050a"/><text x="800" y="305" text-anchor="middle" fill="#b9c8e5" font-family="-apple-system,BlinkMacSystemFont,Segoe UI,sans-serif" font-size="34" font-weight="700">CHARGING</text><g transform="translate(620 365)"><rect width="330" height="150" rx="38" fill="none" stroke="#dce8ff" stroke-width="16"/><rect x="338" y="50" width="28" height="52" rx="8" fill="#dce8ff"/><rect x="18" y="18" width="246" height="114" rx="24" fill="url(#g)"/><text x="165" y="99" text-anchor="middle" fill="white" font-family="-apple-system,BlinkMacSystemFont,Segoe UI,sans-serif" font-size="58" font-weight="900">80%</text></g><path d="M800 556 l-34 68 h38 l-18 76 62-92 h-38 l25-52z" fill="#38d7ff"/><text x="800" y="714" text-anchor="middle" fill="#f7f9ff" font-family="-apple-system,BlinkMacSystemFont,Segoe UI,sans-serif" font-size="29" font-weight="800">One haptic at the 80% crossing</text></g></svg>