<svg xmlns="http://www.w3.org/2000/svg" width="1024" height="1024" viewBox="0 0 1024 1024">
  <defs>
    <linearGradient id="background" x1="0" y1="0" x2="1" y2="1">
      <stop offset="0" stop-color="#6D46EE"/>
      <stop offset="0.48" stop-color="#347CF4"/>
      <stop offset="1" stop-color="#16B9A2"/>
    </linearGradient>
    <linearGradient id="card" x1="0" y1="0" x2="1" y2="1">
      <stop offset="0" stop-color="#FFFFFF" stop-opacity="0.98"/>
      <stop offset="1" stop-color="#EAF7FF" stop-opacity="0.90"/>
    </linearGradient>
    <filter id="shadow" x="-20%" y="-20%" width="140%" height="140%">
      <feDropShadow dx="0" dy="30" stdDeviation="34" flood-color="#13357D" flood-opacity="0.28"/>
    </filter>
  </defs>
  <rect width="1024" height="1024" fill="url(#background)"/>
  <circle cx="875" cy="130" r="270" fill="#FFFFFF" opacity="0.10"/>
  <circle cx="92" cy="920" r="290" fill="#F7A044" opacity="0.16"/>
  <g filter="url(#shadow)">
    <rect x="192" y="238" width="640" height="548" rx="130" fill="url(#card)"/>
    <path d="M282 399c0-48 39-87 87-87h331c48 0 87 39 87 87v58H282v-58z" fill="#6D46EE" opacity="0.12"/>
    <rect x="282" y="382" width="460" height="42" rx="21" fill="#6D46EE"/>
    <rect x="282" y="482" width="212" height="38" rx="19" fill="#347CF4" opacity="0.25"/>
    <rect x="282" y="546" width="145" height="38" rx="19" fill="#16B9A2" opacity="0.30"/>
    <rect x="282" y="610" width="184" height="38" rx="19" fill="#F78B35" opacity="0.30"/>
    <g transform="translate(525 492)">
      <rect x="0" y="100" width="54" height="96" rx="22" fill="#16B9A2"/>
      <rect x="82" y="54" width="54" height="142" rx="22" fill="#347CF4"/>
      <rect x="164" y="0" width="54" height="196" rx="22" fill="#6D46EE"/>
    </g>
  </g>
</svg>

